<svg width="40" height="40" viewBox="0 0 40 40" fill="none" xmlns="http://www.w3.org/2000/svg">
<g clip-path="url(#clip0_198_6099)">
<path d="M20 40C31.0457 40 40 31.0457 40 20C40 8.9543 31.0457 0 20 0C8.9543 0 0 8.9543 0 20C0 31.0457 8.9543 40 20 40Z" fill="#FFE14D"/>
<path d="M40 20C40 8.97195 31.028 0 20 0V40C31.028 40 40 31.028 40 20Z" fill="#FFBB33"/>
<path d="M20 35.2344C11.6 35.2344 4.76562 28.4 4.76562 20C4.76562 11.6 11.6 4.76562 20 4.76562C28.4 4.76562 35.2344 11.6 35.2344 20C35.2344 28.4 28.4 35.2344 20 35.2344Z" fill="#FFBB33"/>
<path d="M35.2344 20C35.2344 11.6 28.4 4.76562 20 4.76562V35.2344C28.4 35.2344 35.2344 28.4 35.2344 20Z" fill="#E68A2E"/>
<path d="M21.1719 18.9117V14.2785C22.5197 14.6092 23.5156 15.4764 23.5156 16.4731C23.5156 17.1209 24.0398 17.645 24.6875 17.645C25.3352 17.645 25.8594 17.1209 25.8594 16.4731C25.8594 14.2089 23.8437 12.3158 21.1719 11.8805V10.6138C21.1719 9.96604 20.6477 9.44189 20 9.44189C19.3523 9.44189 18.8281 9.96604 18.8281 10.6138V11.8805C16.1563 12.3158 14.1406 14.2089 14.1406 16.4731C14.1406 18.7374 16.1563 20.6305 18.8281 21.0658V25.6991C17.4803 25.3684 16.4844 24.5012 16.4844 23.5044C16.4844 22.8567 15.9602 22.3325 15.3125 22.3325C14.6648 22.3325 14.1406 22.8567 14.1406 23.5044C14.1406 25.7686 16.1563 27.6617 18.8281 28.0971V29.3752C18.8281 30.0229 19.3523 30.5471 20 30.5471C20.6477 30.5471 21.1719 30.0229 21.1719 29.3752V28.0971C23.8437 27.6617 25.8594 25.7686 25.8594 23.5044C25.8594 21.2402 23.8437 19.347 21.1719 18.9117ZM16.4844 16.4731C16.4844 15.4764 17.4803 14.6092 18.8281 14.2785V18.6678C17.4803 18.3371 16.4844 17.4699 16.4844 16.4731ZM21.1719 25.6991V21.3097C22.5197 21.6404 23.5156 22.5076 23.5156 23.5044C23.5156 24.5012 22.5197 25.3683 21.1719 25.6991Z" fill="#FFE14D"/>
<path d="M21.1719 29.3752V28.0971C23.8437 27.6617 25.8594 25.7686 25.8594 23.5044C25.8594 21.2402 23.8437 19.3471 21.1719 18.9117V14.2785C22.5197 14.6092 23.5156 15.4764 23.5156 16.4731C23.5156 17.1209 24.0398 17.645 24.6875 17.645C25.3352 17.645 25.8594 17.1209 25.8594 16.4731C25.8594 14.2089 23.8437 12.3158 21.1719 11.8805V10.6138C21.1719 9.96604 20.6477 9.44189 20 9.44189V30.5471C20.6477 30.5471 21.1719 30.0229 21.1719 29.3752ZM21.1719 21.3096C22.5197 21.6403 23.5156 22.5075 23.5156 23.5043C23.5156 24.5011 22.5197 25.3683 21.1719 25.699V21.3096Z" fill="#FFBB33"/>
<circle cx="2.08337" cy="37.9165" r="1.25" fill="#FFBB33"/>
</g>
<defs>
<clipPath id="clip0_198_6099">
<rect width="40" height="40" fill="white"/>
</clipPath>
</defs>
</svg>
