<svg width="40" height="40" viewBox="0 0 40 40" fill="none" xmlns="http://www.w3.org/2000/svg">
<g clip-path="url(#clip0_198_6122)">
<path d="M20 40C31.0457 40 40 31.0457 40 20C40 8.9543 31.0457 0 20 0C8.9543 0 0 8.9543 0 20C0 31.0457 8.9543 40 20 40Z" fill="#E21B1B"/>
<path d="M39.8655 22.2895L28.743 11.167L11.738 28.7976L22.748 39.8076C31.7462 38.5701 38.8324 31.3507 39.8655 22.2895Z" fill="#C40606"/>
<path d="M27.6859 29.0265C27.2859 29.0265 26.8866 28.874 26.5809 28.569L11.4384 13.4259C10.8278 12.8153 10.8278 11.8265 11.4384 11.2165C12.0491 10.6065 13.0378 10.6059 13.6478 11.2165L28.7909 26.3596C29.4016 26.9703 29.4016 27.959 28.7909 28.569C28.4853 28.874 28.0859 29.0265 27.6859 29.0265Z" fill="white"/>
<path d="M12.5425 29.0263C12.1425 29.0263 11.7431 28.8738 11.4375 28.5688C10.8268 27.9581 10.8268 26.9694 11.4375 26.3594L26.5806 11.2163C27.1912 10.6056 28.18 10.6056 28.79 11.2163C29.4 11.8269 29.4006 12.8156 28.79 13.4256L13.6475 28.5688C13.3425 28.8738 12.9425 29.0263 12.5425 29.0263Z" fill="white"/>
</g>
<defs>
<clipPath id="clip0_198_6122">
<rect width="40" height="40" fill="white"/>
</clipPath>
</defs>
</svg>
