<svg width="40" height="40" viewBox="0 0 40 40" fill="none" xmlns="http://www.w3.org/2000/svg">
<g clip-path="url(#clip0_198_6093)">
<path d="M20 40C31.0457 40 40 31.0457 40 20C40 8.9543 31.0457 0 20 0C8.9543 0 0 8.9543 0 20C0 31.0457 8.9543 40 20 40Z" fill="#32BA7C"/>
<path d="M14.8898 29.022L25.1737 39.3059C33.691 37.0346 40.0002 29.2744 40.0002 19.9999C40.0002 19.8106 40.0002 19.6214 40.0002 19.4321L31.9245 11.9873L14.8898 29.022Z" fill="#0AA06E"/>
<path d="M20.5046 24.4799C21.3879 25.3632 21.3879 26.8774 20.5046 27.7606L18.675 29.5903C17.7917 30.4736 16.2775 30.4736 15.3942 29.5903L7.38158 21.5146C6.4983 20.6313 6.4983 19.1171 7.38158 18.2338L9.21123 16.4042C10.0945 15.5209 11.6087 15.5209 12.492 16.4042L20.5046 24.4799Z" fill="white"/>
<path d="M27.5077 10.5365C28.391 9.6532 29.9051 9.6532 30.7884 10.5365L32.6181 12.3661C33.5014 13.2494 33.5014 14.7636 32.6181 15.6469L18.738 29.4639C17.8547 30.3472 16.3405 30.3472 15.4572 29.4639L13.6275 27.6343C12.7443 26.751 12.7443 25.2368 13.6275 24.3535L27.5077 10.5365Z" fill="white"/>
</g>
<defs>
<clipPath id="clip0_198_6093">
<rect width="40" height="40" fill="white"/>
</clipPath>
</defs>
</svg>
