<svg width="24" height="24" viewBox="0 0 24 24" fill="none" xmlns="http://www.w3.org/2000/svg">
<g opacity="0.5">
<path d="M11.997 15.1743C7.684 15.1743 4 15.8543 4 18.5743C4 21.2953 7.661 21.9993 11.997 21.9993C16.31 21.9993 19.994 21.3203 19.994 18.5993C19.994 15.8783 16.334 15.1743 11.997 15.1743Z" fill="url(#paint0_linear_198_17826)"/>
<path opacity="0.4" d="M11.9971 12.5835C14.9351 12.5835 17.2891 10.2285 17.2891 7.29151C17.2891 4.35451 14.9351 1.99951 11.9971 1.99951C9.06008 1.99951 6.70508 4.35451 6.70508 7.29151C6.70508 10.2285 9.06008 12.5835 11.9971 12.5835Z" fill="url(#paint1_linear_198_17826)"/>
</g>
<defs>
<linearGradient id="paint0_linear_198_17826" x1="4" y1="14.7552" x2="20.7046" y2="20.8204" gradientUnits="userSpaceOnUse">
<stop stop-color="#53E88B"/>
<stop offset="1" stop-color="#15BE77"/>
</linearGradient>
<linearGradient id="paint1_linear_198_17826" x1="6.70508" y1="1.34962" x2="18.9233" y2="3.24265" gradientUnits="userSpaceOnUse">
<stop stop-color="#53E88B"/>
<stop offset="1" stop-color="#15BE77"/>
</linearGradient>
</defs>
</svg>
